<svg width="766" height="730" viewBox="0 0 766 730" fill="none" xmlns="http://www.w3.org/2000/svg">
<g clip-path="url(#clip0_1_10)">
<rect width="766" height="730" rx="100" fill="white"/>
<path d="M339.699 180.45C358.944 147.117 407.056 147.117 426.301 180.45L588.375 461.169C602.876 486.286 593.034 518.431 566.958 531.125L477.749 574.55C459.686 542.934 406.66 500.599 382.149 500.599C357.651 500.599 305.82 542.886 288.138 574.496L199.043 531.125C172.966 518.431 163.124 486.286 177.626 461.169L339.699 180.45ZM401.186 270.953C393.103 256.954 372.896 256.953 364.813 270.953L261.356 450.146C253.273 464.145 263.377 481.645 279.543 481.646H486.457C502.622 481.645 512.726 464.145 504.643 450.146L401.186 270.953Z" fill="black"/>
</g>
<rect x="5" y="5" width="756" height="720" rx="95" stroke="black" stroke-width="10"/>
<defs>
<clipPath id="clip0_1_10">
<rect width="766" height="730" rx="100" fill="white"/>
</clipPath>
</defs>
</svg>
