<svg width="51" height="52" viewBox="0 0 51 52" fill="none" xmlns="http://www.w3.org/2000/svg">
<path d="M0 51.9394C0.352593 51.9394 0.68 51.5354 0.982222 50.7274C1.33482 49.9196 1.51111 48.592 1.51111 46.7454V5.19394C1.51111 3.3472 1.33482 2.04871 0.982222 1.29849C0.912715 1.13921 1.48786 0 1.66254 0H24.7067C29.3911 0 33.0429 0.663678 35.6622 1.99102C38.2815 3.26064 40.12 5.10738 41.1778 7.53121C42.286 9.89733 42.84 12.7829 42.84 16.1878C42.84 18.3231 42.4371 20.4294 41.6311 22.507C40.8251 24.5845 39.5156 26.3738 37.7022 27.8741C35.9665 29.3515 33.6203 30.3254 30.6637 30.7956C30.5838 30.8084 30.5244 30.8767 30.5244 30.9571C30.5244 31.0284 30.5713 31.0915 30.6399 31.1129C33.9654 32.1595 36.8231 34.0519 39.2133 36.7903C41.6815 39.5606 43.7971 42.5903 45.56 45.8798C46.7185 48.0151 47.7762 49.5444 48.7333 50.4678C49.6904 51.3912 50.4207 51.8815 50.9244 51.9394H35.0578C35.6622 51.8815 36.1407 51.5065 36.4933 50.8139C36.8962 50.0638 36.7704 48.8518 36.1156 47.1783C35.0578 44.4082 33.5467 41.9556 31.5822 39.8202C29.6682 37.6272 27.2504 35.9247 24.3289 34.7127C21.4073 33.4431 17.9318 32.8084 13.9022 32.8084H13.0711C11.5096 32.8084 10.603 32.9526 10.3511 33.2411C10.0993 33.5297 9.97333 34.2511 9.97333 35.4052V46.7454C9.97333 48.592 10.1496 49.9196 10.5022 50.7274C10.8548 51.5354 11.2074 51.9394 11.56 51.9394H0ZM12.3571 25.8761C12.8255 25.886 13.2871 25.7676 13.6996 25.547L16.1768 24.2228C16.9727 23.7974 17.9252 23.7747 18.7406 24.162L21.7849 25.6078C22.1665 25.789 22.5845 25.8855 23.0072 25.8761C26.7168 25.7937 29.5248 24.9882 31.4311 23.4593C33.446 21.7857 24.3289 19.3618 24.3289 16.1878C24.3289 14.0524 34.0504 12.3212 33.2444 10.9938C32.4889 9.60877 31.28 8.59885 29.6178 7.96404C28.1046 7.38614 26.174 7.07129 23.8261 7.01947C23.3625 7.00924 22.906 7.12483 22.4967 7.34097L18.9639 9.20623C18.0296 9.69954 16.8966 9.63444 16.0257 9.03741L13.7975 7.5098C13.3244 7.1855 12.7628 7.00697 12.1883 7.02287C11.1634 7.05122 10.551 7.1341 10.3511 7.27151C10.1777 7.39074 10.064 7.74256 10.01 8.32698C9.95401 8.9324 10.1713 9.52561 10.5377 10.0125L13.9533 14.5514C14.6878 15.5274 14.7071 16.8621 14.0013 17.8587L10.4898 22.8167C10.1537 23.2911 9.95747 23.8586 10.0054 24.437C10.0574 25.0644 10.1726 25.4597 10.3511 25.6234C10.5617 25.7682 11.2304 25.8524 12.3571 25.8761Z" fill="white"/>
</svg>
