<svg width="490" height="465" viewBox="0 0 490 465" fill="none" xmlns="http://www.w3.org/2000/svg">
<rect width="490" height="465" rx="100" fill="black"/>
<path d="M110.4 371.677C112.267 371.677 114 369.525 115.6 365.221C117.467 360.918 118.4 353.846 118.4 344.009V122.668C118.4 112.83 117.467 105.913 115.6 101.917C115.232 101.069 118.277 95 119.202 95H241.2C266 95 285.333 98.5354 299.2 105.606C313.067 112.369 322.8 122.207 328.4 135.118C334.267 147.722 337.2 163.094 337.2 181.231C337.2 192.606 335.067 203.826 330.8 214.893C326.533 225.96 319.6 235.491 310 243.483C300.811 251.353 288.39 256.541 272.737 259.046C272.314 259.114 272 259.478 272 259.906C272 260.286 272.248 260.622 272.611 260.736C290.217 266.311 305.346 276.392 318 290.979C331.067 305.736 342.267 321.875 351.6 339.398C357.733 350.773 363.333 358.919 368.4 363.838C373.467 368.757 377.333 371.369 380 371.677H296C299.2 371.369 301.733 369.371 303.6 365.682C305.733 361.686 305.067 355.23 301.6 346.315C296 331.559 288 318.494 277.6 307.119C267.467 295.437 254.667 286.368 239.2 279.912C223.733 273.149 205.333 269.768 184 269.768H179.6C171.333 269.768 166.533 270.536 165.2 272.073C163.867 273.61 163.2 277.453 163.2 283.601V344.009C163.2 353.846 164.133 360.918 166 365.221C167.867 369.525 169.733 371.677 171.6 371.677H110.4ZM175.82 232.84C178.3 232.893 180.743 232.262 182.927 231.087L196.042 224.033C200.256 221.767 205.298 221.646 209.615 223.709L225.732 231.411C227.752 232.376 229.965 232.89 232.203 232.84C251.842 232.401 266.708 228.11 276.8 219.966C287.467 211.051 239.2 198.139 239.2 181.231C239.2 169.856 290.667 160.634 286.4 153.563C282.4 146.185 276 140.805 267.2 137.424C259.189 134.345 248.968 132.668 236.538 132.392C234.084 132.338 231.667 132.953 229.5 134.105L210.797 144.041C205.851 146.669 199.853 146.322 195.242 143.142L183.446 135.004C180.941 133.277 177.968 132.326 174.926 132.41C169.5 132.561 166.258 133.003 165.2 133.735C164.282 134.37 163.68 136.244 163.394 139.357C163.098 142.582 164.248 145.742 166.188 148.336L184.271 172.514C188.159 177.713 188.261 184.823 184.524 190.132L165.934 216.543C164.155 219.07 163.116 222.093 163.37 225.174C163.645 228.516 164.255 230.622 165.2 231.494C166.315 232.265 169.855 232.714 175.82 232.84Z" fill="white"/>
</svg>
